<?xml version="1.0" encoding="utf-8"?>
<!-- Generator: Adobe Illustrator 24.0.1, SVG Export Plug-In . SVG Version: 6.00 Build 0)  -->
<svg version="1.1" id="Layer_1" xmlns="http://www.w3.org/2000/svg" xmlns:xlink="http://www.w3.org/1999/xlink" x="0px" y="0px"
	 viewBox="0 0 1000 1000" style="enable-background:new 0 0 1000 1000;" xml:space="preserve">
<style type="text/css">
	.st0{fill:#F67FA0;}
	.st1{fill:#FFFFFF;}
	.st2{fill:#585858;}
</style>
<g>
	<polygon class="st0" points="740.38,75.7 259.62,75.7 19.23,492.05 259.62,908.41 740.38,908.41 980.77,492.05 	"/>
	<g>
		<g>
			<path class="st1" d="M370.73,304.23l-57.67-48.86l12.77-18.05c8.21-11.73,16.14-21.64,23.77-29.71
				c7.63-8.07,15.41-14.67,23.33-19.81c7.92-5.13,16.14-8.8,24.65-11c8.51-2.2,17.75-3.3,27.73-3.3c22.89,0,49.45,7.63,79.68,22.89
				c30.52,15.56,50.18,23.33,58.99,23.33c16.43,0,34.62-15.85,54.58-47.54l55.91,46.66c-28.17,56.35-66.33,84.52-114.45,84.52
				c-16.44,0-43.29-8.21-80.56-24.65c-26.71-13.5-46.66-20.25-59.87-20.25C403.45,258.45,387.16,273.71,370.73,304.23z
				 M315.26,377.3h99.48v39.62c34.62-34.34,73.66-51.5,117.09-51.5c49.89,0,88.77,15.7,116.65,47.1
				c24.06,26.71,36.1,70.29,36.1,130.74v262.8h-99.48V566.59c0-42.26-5.87-71.46-17.61-87.6c-11.45-16.43-32.29-24.65-62.51-24.65
				c-32.87,0-56.2,10.86-69.99,32.57c-13.5,21.43-20.25,58.84-20.25,112.25v206.89h-99.48V377.3z"/>
		</g>
		<g>
			
				<ellipse transform="matrix(0.9239 -0.3827 0.3827 0.9239 -54.4381 209.713)" class="st0" cx="499.93" cy="241.7" rx="55" ry="55"/>
			<path class="st1" d="M499.93,206.7c19.3,0,35,15.7,35,35s-15.7,35-35,35s-35-15.7-35-35S480.63,206.7,499.93,206.7 M499.93,166.7
				c-41.42,0-75,33.58-75,75s33.58,75,75,75c41.42,0,75-33.58,75-75S541.35,166.7,499.93,166.7L499.93,166.7z"/>
		</g>
	</g>
</g>
<g>
	<polygon class="st2" points="206.09,519.64 237,526 206.09,532.36 201,571 195.91,532.36 165,526 195.91,519.64 201,481 	"/>
	<polygon class="st1" points="201,481 195.91,519.64 165,526 195.91,532.36 201,571 206.09,532.36 237,526 206.09,519.64 201,481 	
		"/>
</g>
<g>
	<polygon class="st2" points="753.48,325.43 796.29,334.25 753.48,343.06 746.43,396.57 739.38,343.06 696.57,334.25 739.38,325.43 
		746.43,271.92 	"/>
	<polygon class="st1" points="746.43,271.92 739.38,325.43 696.57,334.25 739.38,343.06 746.43,396.57 753.48,343.06 796.29,334.25 
		753.48,325.43 746.43,271.92 	"/>
</g>
<g>
	<polygon class="st2" points="774.16,690.01 794.76,694.25 774.16,698.49 770.77,724.23 767.38,698.49 746.78,694.25 767.38,690.01 
		770.77,664.26 	"/>
	<polygon class="st1" points="770.77,664.26 767.38,690.01 746.78,694.25 767.38,698.49 770.77,724.23 774.16,698.49 794.76,694.25 
		774.16,690.01 770.77,664.26 	"/>
</g>
</svg>
