<svg id="Layer_1" data-name="Layer 1" xmlns="http://www.w3.org/2000/svg" viewBox="0 0 569.61 108.22"><defs><style>.cls-1{fill:#aa1f23;}.cls-2{fill:#a91f24;}.cls-3{fill:#142349;}.cls-4{fill:#15244a;}.cls-5,.cls-6{fill:#f6eb0f;}.cls-6{font-size:18.87px;font-family:BelyDisplay-Regular, Bely Display;}</style></defs><rect class="cls-1" x="4.27" y="66" width="5.03" height="39.68"/><rect class="cls-1" x="59.2" y="65.81" width="5.03" height="39.87"/><path class="cls-2" d="M121,32h7.27l22.38,60.72h-9.19l-16.82-49-16.83,49H98.58Z" transform="translate(-19.58 -12)"/><path class="cls-2" d="M167.09,92.6a26.12,26.12,0,0,1-6.29-2.25,25.21,25.21,0,0,1-5.39-3.76l5.06-6.22a28.34,28.34,0,0,0,7,4,18.74,18.74,0,0,0,6.85,1.34c3.37,0,5.89-.52,7.58-1.56a5.18,5.18,0,0,0,2.52-4.7A3.69,3.69,0,0,0,183,76.32a7.66,7.66,0,0,0-3.43-1.4q-2-.36-5.76-.65l-.71,0-.71-.06a1.84,1.84,0,0,1-.33,0l-.34,0a33.5,33.5,0,0,1-7.14-1.23,9.68,9.68,0,0,1-4.86-3.36q-2-2.46-2-7.06a14.35,14.35,0,0,1,1.88-7.64,11.49,11.49,0,0,1,5.6-4.57,24.61,24.61,0,0,1,9.31-1.52,31.94,31.94,0,0,1,6.45.62,29.09,29.09,0,0,1,5.87,1.86,29.59,29.59,0,0,1,5.39,3.11l-5.14,6.22a28.85,28.85,0,0,0-6.41-3.13,19.71,19.71,0,0,0-6.16-1q-4.35,0-6.51,1.48a5,5,0,0,0-2.17,4.45A3,3,0,0,0,167.13,65a7.33,7.33,0,0,0,3.11,1.17c1.25.19,3,.36,5.34.5a3,3,0,0,0,.52,0,3.73,3.73,0,0,1,.57,0h.25a1.09,1.09,0,0,1,.25,0A37.57,37.57,0,0,1,184.92,68a10.54,10.54,0,0,1,5.36,3.64c1.45,1.81,2.17,4.42,2.17,7.85a13.91,13.91,0,0,1-2,7.74,12.11,12.11,0,0,1-6,4.62,28.5,28.5,0,0,1-10.12,1.54A33,33,0,0,1,167.09,92.6Z" transform="translate(-19.58 -12)"/><path class="cls-2" d="M200,49.38h19.54v7.69H200ZM206.88,90q-2.44-2.9-2.44-8.58V36.77H213V81.54a4.08,4.08,0,0,0,.62,2.44,2.14,2.14,0,0,0,1.84.85h4.09v8.11h-4.93Q209.33,92.94,206.88,90Z" transform="translate(-19.58 -12)"/><path class="cls-2" d="M231.2,49.38h8.52V92.73H231.2Zm21,8.19a10.19,10.19,0,0,0-4-.71A8.48,8.48,0,0,0,242,59.09a8.39,8.39,0,0,0-2.24,6.2l-.87-8.35a15.84,15.84,0,0,1,5.17-6,12.22,12.22,0,0,1,7-2.15,15.86,15.86,0,0,1,5.36.85,11.87,11.87,0,0,1,4.2,2.53l-5.55,7.51A7.16,7.16,0,0,0,252.21,57.57Z" transform="translate(-19.58 -12)"/><path class="cls-2" d="M273.84,91.14a14.69,14.69,0,0,1-6.12-6.45,22.81,22.81,0,0,1-2.11-10.21V67.42a22.29,22.29,0,0,1,2.11-10.08A14.55,14.55,0,0,1,273.84,51a22.33,22.33,0,0,1,19.29,0,14.55,14.55,0,0,1,6.12,6.39,22.29,22.29,0,0,1,2.11,10.08V74.6a22.43,22.43,0,0,1-2.11,10.13,14.7,14.7,0,0,1-6.12,6.41,22.15,22.15,0,0,1-19.29,0Zm16.56-8.69c1.62-1.86,2.44-4.48,2.44-7.85V67.42c0-3.37-.82-6-2.44-7.81a10.07,10.07,0,0,0-13.83,0q-2.44,2.76-2.44,7.81V74.6q0,5.06,2.44,7.85a9.94,9.94,0,0,0,13.83,0Z" transform="translate(-19.58 -12)"/><path class="cls-2" d="M320.84,91.14a15,15,0,0,1-6.41-6.43,21.63,21.63,0,0,1-2.22-10.19V67.38a21.14,21.14,0,0,1,2.22-10.06A14.83,14.83,0,0,1,320.84,51,21.61,21.61,0,0,1,331,48.76a24.22,24.22,0,0,1,6.37.81,18.92,18.92,0,0,1,5.37,2.36,14.51,14.51,0,0,1,4,3.76l-6.13,5.51A12.9,12.9,0,0,0,336.22,58a12.19,12.19,0,0,0-5.13-1.12c-3.29,0-5.83.91-7.64,2.75s-2.72,4.43-2.72,7.77v7.14c0,3.42.9,6.07,2.7,7.93s4.35,2.8,7.66,2.8A11.59,11.59,0,0,0,336.27,84a12.74,12.74,0,0,0,4.26-3.42l6.13,5.93a15.19,15.19,0,0,1-4,3.69,18.85,18.85,0,0,1-5.37,2.32,24.51,24.51,0,0,1-6.33.79A21.37,21.37,0,0,1,320.84,91.14Z" transform="translate(-19.58 -12)"/><path class="cls-2" d="M356.06,32h8.52V92.73h-8.52Zm26.31,34.45c0-3.06-.8-5.43-2.38-7.1a8.79,8.79,0,0,0-6.68-2.5A9,9,0,0,0,366.85,59a8.1,8.1,0,0,0-2.27,6.14l-.88-8.36a15.48,15.48,0,0,1,5.24-6,12.9,12.9,0,0,1,7.16-2.1q7.06,0,10.92,4.61t3.87,13.05V92.73h-8.52Z" transform="translate(-19.58 -12)"/><path class="cls-2" d="M405.71,90q-4-3.32-4-10.08,0-6.44,3.64-9.65t11-3.21h12.32l.58,6.85H416.4a7.26,7.26,0,0,0-5,1.48A5.79,5.79,0,0,0,409.76,80,5.61,5.61,0,0,0,412,84.83q2.19,1.59,6.66,1.59a19.39,19.39,0,0,0,7.29-1,3.44,3.44,0,0,0,2.4-3.26l.88,6.1a9.93,9.93,0,0,1-2.78,2.88,12.2,12.2,0,0,1-3.82,1.69,19.8,19.8,0,0,1-4.89.56Q409.68,93.35,405.71,90ZM428.3,65.25A9.13,9.13,0,0,0,426,58.63a8.53,8.53,0,0,0-6.45-2.36,16.58,16.58,0,0,0-5.07.8,14.72,14.72,0,0,0-4.41,2.21L403.87,55a16.22,16.22,0,0,1,6.5-4.62,23.58,23.58,0,0,1,8.95-1.64,20.59,20.59,0,0,1,9.23,1.9,13.18,13.18,0,0,1,5.85,5.51,17.76,17.76,0,0,1,2,8.7V92.73h-8.1Z" transform="translate(-19.58 -12)"/><path class="cls-2" d="M449.35,49.38h8.52V92.73h-8.52Zm21,8.19a10.16,10.16,0,0,0-4-.71,8.48,8.48,0,0,0-6.28,2.23,8.38,8.38,0,0,0-2.23,6.2L457,56.94a15.78,15.78,0,0,1,5.18-6,12.16,12.16,0,0,1,7-2.15,15.92,15.92,0,0,1,5.37.85,11.82,11.82,0,0,1,4.19,2.53l-5.55,7.51A7.16,7.16,0,0,0,470.35,57.57Z" transform="translate(-19.58 -12)"/><path class="cls-2" d="M494.36,81.54a3.81,3.81,0,0,0,.69,2.44,2.35,2.35,0,0,0,1.94.85h4v8.11h-5a9.49,9.49,0,0,1-7.5-3c-1.76-2-2.65-4.83-2.65-8.48V32h8.52Z" transform="translate(-19.58 -12)"/><path class="cls-2" d="M512.07,90q-4-3.32-4-10.08,0-6.44,3.63-9.65c2.42-2.14,6.09-3.21,11-3.21H535l.59,6.85H522.76a7.26,7.26,0,0,0-5,1.48A5.79,5.79,0,0,0,516.12,80a5.61,5.61,0,0,0,2.19,4.88q2.19,1.59,6.66,1.59a19.39,19.39,0,0,0,7.29-1,3.44,3.44,0,0,0,2.4-3.26l.87,6.1a9.9,9.9,0,0,1-2.77,2.88,12.3,12.3,0,0,1-3.82,1.69,19.8,19.8,0,0,1-4.89.56Q516,93.35,512.07,90Zm22.59-24.78a9.13,9.13,0,0,0-2.28-6.62,8.56,8.56,0,0,0-6.45-2.36,16.48,16.48,0,0,0-5.07.8,14.72,14.72,0,0,0-4.41,2.21L510.23,55a16.26,16.26,0,0,1,6.49-4.62,23.63,23.63,0,0,1,9-1.64,20.59,20.59,0,0,1,9.23,1.9,13.1,13.1,0,0,1,5.84,5.51,17.65,17.65,0,0,1,2,8.7V92.73h-8.1Z" transform="translate(-19.58 -12)"/><path class="cls-2" d="M563.83,92.6a26.12,26.12,0,0,1-6.29-2.25,25.21,25.21,0,0,1-5.39-3.76l5.06-6.22a28.53,28.53,0,0,0,7,4A18.74,18.74,0,0,0,571,85.71c3.37,0,5.89-.52,7.58-1.56a5.18,5.18,0,0,0,2.52-4.7,3.69,3.69,0,0,0-1.37-3.13,7.66,7.66,0,0,0-3.43-1.4q-2-.36-5.76-.65l-.71,0-.71-.06a1.84,1.84,0,0,1-.33,0l-.34,0a33.5,33.5,0,0,1-7.14-1.23,9.68,9.68,0,0,1-4.86-3.36q-2-2.46-2-7.06a14.35,14.35,0,0,1,1.88-7.64,11.49,11.49,0,0,1,5.6-4.57,24.61,24.61,0,0,1,9.31-1.52,31.94,31.94,0,0,1,6.45.62,29.09,29.09,0,0,1,5.87,1.86A29.59,29.59,0,0,1,589,54.35l-5.14,6.22a28.85,28.85,0,0,0-6.41-3.13,19.66,19.66,0,0,0-6.16-1c-2.89,0-5.07.49-6.51,1.48a5,5,0,0,0-2.17,4.45A3,3,0,0,0,563.87,65,7.33,7.33,0,0,0,567,66.13c1.25.19,3,.36,5.34.5a3,3,0,0,0,.53,0,3.69,3.69,0,0,1,.56,0h.25a1.09,1.09,0,0,1,.25,0A37.57,37.57,0,0,1,581.66,68,10.49,10.49,0,0,1,587,71.6c1.45,1.81,2.17,4.42,2.17,7.85a13.83,13.83,0,0,1-2,7.74,12.11,12.11,0,0,1-6,4.62A28.5,28.5,0,0,1,571,93.35,33,33,0,0,1,563.83,92.6Z" transform="translate(-19.58 -12)"/><path class="cls-3" d="M101.93,116.92a3.23,3.23,0,0,1-1.24-1.32,4.31,4.31,0,0,1-.43-2v-2.78a4.31,4.31,0,0,1,.43-2,3.25,3.25,0,0,1,1.24-1.33,3.61,3.61,0,0,1,1.85-.47,3.37,3.37,0,0,1,2.82,1.43,3.79,3.79,0,0,1,.66,1.58h-1.45a2.38,2.38,0,0,0-.44-.85,2.1,2.1,0,0,0-.73-.57,1.9,1.9,0,0,0-.86-.2,1.92,1.92,0,0,0-1.81,1.13,2.92,2.92,0,0,0-.26,1.26v2.78a2.91,2.91,0,0,0,.26,1.25,2,2,0,0,0,.72.84,2,2,0,0,0,1.09.29,2.11,2.11,0,0,0,.86-.18,2.2,2.2,0,0,0,.73-.56,2.35,2.35,0,0,0,.44-.88h1.45a3.93,3.93,0,0,1-.66,1.58,3.38,3.38,0,0,1-1.23,1.06,3.74,3.74,0,0,1-3.44-.1Z" transform="translate(-19.58 -12)"/><path class="cls-3" d="M114.42,107.17h1.42v10.11h-1.42Zm4.38,5.74a1.65,1.65,0,0,0-.4-1.19,1.47,1.47,0,0,0-1.11-.41,1.49,1.49,0,0,0-1.07.36,1.31,1.31,0,0,0-.38,1l-.15-1.39a2.48,2.48,0,0,1,.87-1,2.11,2.11,0,0,1,1.2-.35,2.25,2.25,0,0,1,1.82.76,3.31,3.31,0,0,1,.64,2.18v4.38H118.8Z" transform="translate(-19.58 -12)"/><path class="cls-3" d="M128,116.83a2.42,2.42,0,0,1-.06-3.28,2.67,2.67,0,0,1,1.83-.54h2l.1,1.14h-2.14a1.18,1.18,0,0,0-.83.25A1.12,1.12,0,0,0,129,116a1.86,1.86,0,0,0,1.11.26,3.14,3.14,0,0,0,1.21-.17.57.57,0,0,0,.4-.54l.15,1a1.54,1.54,0,0,1-.47.48,1.81,1.81,0,0,1-.63.28,3,3,0,0,1-.82.1A3,3,0,0,1,128,116.83Zm3.76-4.12a1.54,1.54,0,0,0-.38-1.11,1.42,1.42,0,0,0-1.07-.39,2.74,2.74,0,0,0-.85.13,2.39,2.39,0,0,0-.73.37l-1-.71a2.63,2.63,0,0,1,1.08-.77,4,4,0,0,1,1.49-.27,3.44,3.44,0,0,1,1.54.31,2.24,2.24,0,0,1,1,.92,3,3,0,0,1,.33,1.45v4.64h-1.35Z" transform="translate(-19.58 -12)"/><path class="cls-3" d="M140.51,110.06h1.42v7.22h-1.42Zm3.5,1.36a1.9,1.9,0,0,0-.66-.11,1.29,1.29,0,0,0-1.42,1.4l-.14-1.39a2.68,2.68,0,0,1,.86-1,2.09,2.09,0,0,1,1.17-.35,2.48,2.48,0,0,1,.89.14,1.85,1.85,0,0,1,.7.42l-.92,1.25A1.3,1.3,0,0,0,144,111.42Z" transform="translate(-19.58 -12)"/><path class="cls-3" d="M153.29,115.42a.69.69,0,0,0,.11.41.42.42,0,0,0,.33.14h.66v1.35h-.83a1.58,1.58,0,0,1-1.25-.5,2.11,2.11,0,0,1-.44-1.41v-8.24h1.42Z" transform="translate(-19.58 -12)"/><path class="cls-3" d="M161.51,116.83a2,2,0,0,1-.66-1.68,2,2,0,0,1,.61-1.6,2.67,2.67,0,0,1,1.83-.54h2.05l.1,1.14h-2.15a1.19,1.19,0,0,0-.83.25,1,1,0,0,0-.27.75,1,1,0,0,0,.36.82,1.9,1.9,0,0,0,1.11.26,3.16,3.16,0,0,0,1.22-.17.59.59,0,0,0,.4-.54l.14,1a1.51,1.51,0,0,1-.46.48,1.86,1.86,0,0,1-.64.28,2.9,2.9,0,0,1-.81.1A3.06,3.06,0,0,1,161.51,116.83Zm3.77-4.12a1.54,1.54,0,0,0-.38-1.11,1.43,1.43,0,0,0-1.08-.39,2.68,2.68,0,0,0-.84.13,2.57,2.57,0,0,0-.74.37l-1-.71a2.63,2.63,0,0,1,1.08-.77,4,4,0,0,1,1.49-.27,3.47,3.47,0,0,1,1.54.31,2.16,2.16,0,0,1,1,.92,2.88,2.88,0,0,1,.34,1.45v4.64h-1.35Z" transform="translate(-19.58 -12)"/><path class="cls-3" d="M175.41,117.26a4.42,4.42,0,0,1-1-.37,4,4,0,0,1-.9-.63l.84-1a4.8,4.8,0,0,0,1.16.67,3.17,3.17,0,0,0,1.14.23,2.4,2.4,0,0,0,1.27-.27.85.85,0,0,0,.42-.78.63.63,0,0,0-.23-.52,1.32,1.32,0,0,0-.57-.23c-.23,0-.55-.08-1-.11h-.35A5.69,5.69,0,0,1,175,114a1.53,1.53,0,0,1-.81-.56,1.81,1.81,0,0,1-.33-1.17,2.41,2.41,0,0,1,.32-1.28,1.91,1.91,0,0,1,.93-.76,4.09,4.09,0,0,1,1.55-.25,5.35,5.35,0,0,1,1.08.1,4.57,4.57,0,0,1,1,.31,4.78,4.78,0,0,1,.9.52l-.85,1a5.24,5.24,0,0,0-1.07-.52,3.42,3.42,0,0,0-1-.17,1.87,1.87,0,0,0-1.08.25.82.82,0,0,0-.37.74.51.51,0,0,0,.21.44,1.28,1.28,0,0,0,.52.19c.21,0,.5.06.89.08h.26a5.47,5.47,0,0,1,1.29.2,1.72,1.72,0,0,1,.9.6,2.06,2.06,0,0,1,.36,1.31,2.33,2.33,0,0,1-.33,1.29,2,2,0,0,1-1,.77,4.8,4.8,0,0,1-1.69.26A5.19,5.19,0,0,1,175.41,117.26Z" transform="translate(-19.58 -12)"/><path class="cls-3" d="M195.83,110.06h1.41v10.16h-1.41Zm2.06,7a1.93,1.93,0,0,1-.74-.92l.09-1.51a1.74,1.74,0,0,0,.17.79,1.08,1.08,0,0,0,.49.5,1.5,1.5,0,0,0,.76.18,1.4,1.4,0,0,0,1.09-.43,1.74,1.74,0,0,0,.39-1.21v-1.56a1.82,1.82,0,0,0-.39-1.24,1.37,1.37,0,0,0-1.09-.43,1.61,1.61,0,0,0-.76.16,1.11,1.11,0,0,0-.49.49,1.73,1.73,0,0,0-.17.78l-.14-1.39a2.56,2.56,0,0,1,.85-1,2.14,2.14,0,0,1,1.18-.34,2.39,2.39,0,0,1,1.31.34,2.14,2.14,0,0,1,.83,1,4,4,0,0,1,.29,1.59v1.57a3.89,3.89,0,0,1-.29,1.57,2.17,2.17,0,0,1-.86,1,2.51,2.51,0,0,1-1.35.35A2.14,2.14,0,0,1,197.89,117.07Z" transform="translate(-19.58 -12)"/><path class="cls-3" d="M210.27,114.45a1.62,1.62,0,0,0,.39,1.17,1.41,1.41,0,0,0,1.09.42,1.49,1.49,0,0,0,1.08-.37,1.42,1.42,0,0,0,.38-1l.1,1.51a2,2,0,0,1-2,1.26,2.31,2.31,0,0,1-1.85-.77,3.29,3.29,0,0,1-.65-2.17v-4.39h1.42Zm.66-6.5,2-2.47,1,.85-2.13,2.34Zm2.28,2.11h1.41v7.22h-1.41Z" transform="translate(-19.58 -12)"/><path class="cls-3" d="M222.05,107.17h1.42v10.11h-1.42Zm2.06,9.9a1.91,1.91,0,0,1-.73-.92l.09-1.51a1.74,1.74,0,0,0,.17.79,1.11,1.11,0,0,0,.48.5,1.54,1.54,0,0,0,.77.18,1.41,1.41,0,0,0,1.09-.43,1.74,1.74,0,0,0,.39-1.21v-1.56a1.82,1.82,0,0,0-.39-1.24,1.38,1.38,0,0,0-1.09-.43,1.65,1.65,0,0,0-.77.16,1.14,1.14,0,0,0-.48.49,1.73,1.73,0,0,0-.17.78l-.14-1.39a2.48,2.48,0,0,1,.85-1,2.11,2.11,0,0,1,1.18-.34,2.39,2.39,0,0,1,1.31.34,2.2,2.2,0,0,1,.83,1,4,4,0,0,1,.29,1.59v1.57a3.89,3.89,0,0,1-.29,1.57,2.23,2.23,0,0,1-.86,1,2.56,2.56,0,0,1-1.35.35A2.19,2.19,0,0,1,224.11,117.07Z" transform="translate(-19.58 -12)"/><path class="cls-3" d="M236.5,115.42a.69.69,0,0,0,.11.41.42.42,0,0,0,.33.14h.67v1.35h-.84a1.6,1.6,0,0,1-1.25-.5,2.11,2.11,0,0,1-.44-1.41v-8.24h1.42Z" transform="translate(-19.58 -12)"/><path class="cls-3" d="M244.48,107.17h1.42v1.41h-1.42Zm0,2.89h1.42v7.22h-1.42Z" transform="translate(-19.58 -12)"/><path class="cls-3" d="M254.56,117a2.51,2.51,0,0,1-1.07-1.07,3.71,3.71,0,0,1-.37-1.7v-1.19a3.65,3.65,0,0,1,.37-1.68,2.49,2.49,0,0,1,1.07-1.06,3.67,3.67,0,0,1,1.69-.36,4.05,4.05,0,0,1,1.06.13,3.12,3.12,0,0,1,.89.39,2.49,2.49,0,0,1,.66.63l-1,.92a2.13,2.13,0,0,0-.72-.54,2.09,2.09,0,0,0-.85-.18,1.72,1.72,0,0,0-1.28.46,1.75,1.75,0,0,0-.45,1.29v1.19a1.82,1.82,0,0,0,.45,1.32,1.71,1.71,0,0,0,1.28.47,2,2,0,0,0,.86-.2,2.29,2.29,0,0,0,.71-.57l1,1a2.44,2.44,0,0,1-.66.62,3.31,3.31,0,0,1-.9.39,4.44,4.44,0,0,1-1.05.13A3.54,3.54,0,0,1,254.56,117Z" transform="translate(-19.58 -12)"/><path class="cls-3" d="M266,116.83a2,2,0,0,1-.67-1.68,2,2,0,0,1,.61-1.6,2.67,2.67,0,0,1,1.83-.54h2l.1,1.14H267.8a1.18,1.18,0,0,0-.83.25,1.12,1.12,0,0,0,.09,1.57,1.86,1.86,0,0,0,1.11.26,3.14,3.14,0,0,0,1.21-.17.57.57,0,0,0,.4-.54l.15,1a1.54,1.54,0,0,1-.47.48,1.81,1.81,0,0,1-.63.28,3,3,0,0,1-.82.1A3,3,0,0,1,266,116.83Zm3.76-4.12a1.54,1.54,0,0,0-.38-1.11,1.42,1.42,0,0,0-1.07-.39,2.74,2.74,0,0,0-.85.13,2.51,2.51,0,0,0-.73.37l-1-.71a2.63,2.63,0,0,1,1.08-.77,4,4,0,0,1,1.5-.27,3.42,3.42,0,0,1,1.53.31,2.24,2.24,0,0,1,1,.92,3,3,0,0,1,.33,1.45v4.64h-1.35Z" transform="translate(-19.58 -12)"/><path class="cls-3" d="M279.92,117.26a4.35,4.35,0,0,1-1.05-.37,4.29,4.29,0,0,1-.9-.63l.84-1a4.67,4.67,0,0,0,1.17.67,3.09,3.09,0,0,0,1.14.23,2.36,2.36,0,0,0,1.26-.27.85.85,0,0,0,.42-.78.63.63,0,0,0-.23-.52,1.23,1.23,0,0,0-.57-.23c-.23,0-.55-.08-1-.11h-.35a5.81,5.81,0,0,1-1.19-.21,1.62,1.62,0,0,1-.81-.56,1.87,1.87,0,0,1-.32-1.17,2.4,2.4,0,0,1,.31-1.28,1.91,1.91,0,0,1,.93-.76,4.15,4.15,0,0,1,1.56-.25,5.32,5.32,0,0,1,1.07.1,4.66,4.66,0,0,1,1,.31,5.11,5.11,0,0,1,.9.52l-.86,1a5,5,0,0,0-1.07-.52,3.4,3.4,0,0,0-1-.17,1.89,1.89,0,0,0-1.09.25.83.83,0,0,0-.36.74.53.53,0,0,0,.2.44,1.28,1.28,0,0,0,.52.19c.21,0,.51.06.89.08h.27a5.64,5.64,0,0,1,1.29.2,1.73,1.73,0,0,1,.89.6,2.06,2.06,0,0,1,.36,1.31,2.33,2.33,0,0,1-.33,1.29,2,2,0,0,1-1,.77,4.74,4.74,0,0,1-1.68.26A5.08,5.08,0,0,1,279.92,117.26Z" transform="translate(-19.58 -12)"/><path class="cls-3" d="M301.27,117.07a2.25,2.25,0,0,1-.86-1,4,4,0,0,1-.29-1.59v-1.59a4,4,0,0,1,.29-1.59,2.09,2.09,0,0,1,.83-1,2.39,2.39,0,0,1,1.31-.35,2.16,2.16,0,0,1,1.17.34,2.38,2.38,0,0,1,.86.94l-.14,1.47a1.73,1.73,0,0,0-.17-.78,1.08,1.08,0,0,0-.49-.5,1.61,1.61,0,0,0-.76-.17,1.37,1.37,0,0,0-1.09.44,1.78,1.78,0,0,0-.39,1.23v1.57a1.75,1.75,0,0,0,.39,1.22,1.4,1.4,0,0,0,1.09.43,1.5,1.5,0,0,0,.76-.18,1.15,1.15,0,0,0,.49-.51,1.81,1.81,0,0,0,.17-.8l.09,1.52a2,2,0,0,1-.7.9,2,2,0,0,1-1.21.36A2.6,2.6,0,0,1,301.27,117.07Zm3.17-9.9h1.41v10.11h-1.41Z" transform="translate(-19.58 -12)"/><path class="cls-3" d="M314.53,117a2.55,2.55,0,0,1-1.08-1.1,3.81,3.81,0,0,1-.37-1.76v-.81a4.2,4.2,0,0,1,.36-1.83,2.5,2.5,0,0,1,1-1.16,3.24,3.24,0,0,1,1.64-.39,2.59,2.59,0,0,1,1.54.45,2.76,2.76,0,0,1,1,1.31,5.47,5.47,0,0,1,.34,2v.47h-4.87V113.1h3.52a2.33,2.33,0,0,0-.46-1.37,1.26,1.26,0,0,0-1.05-.49,1.51,1.51,0,0,0-1.25.53,2.28,2.28,0,0,0-.44,1.49v.92a1.91,1.91,0,0,0,.47,1.38,1.8,1.8,0,0,0,1.34.48,2.18,2.18,0,0,0,.86-.18,2.33,2.33,0,0,0,.76-.48l.93.93a4.13,4.13,0,0,1-1.2.8,3.73,3.73,0,0,1-3.06-.1Z" transform="translate(-19.58 -12)"/><path class="cls-3" d="M338.2,107.17h1.21l3.73,10.11h-1.53l-2.81-8.16-2.8,8.16h-1.53Zm-2,6.54h5.32v1.35h-5.32Z" transform="translate(-19.58 -12)"/><path class="cls-3" d="M351.16,117.26a4.67,4.67,0,0,1-1.05-.37,4.56,4.56,0,0,1-.9-.63l.85-1a4.62,4.62,0,0,0,1.16.67,3.09,3.09,0,0,0,1.14.23,2.36,2.36,0,0,0,1.26-.27.85.85,0,0,0,.42-.78.6.6,0,0,0-.23-.52,1.23,1.23,0,0,0-.57-.23,9.3,9.3,0,0,0-1-.11h-.35a5.94,5.94,0,0,1-1.19-.21,1.62,1.62,0,0,1-.81-.56,1.87,1.87,0,0,1-.32-1.17,2.4,2.4,0,0,1,.31-1.28,1.89,1.89,0,0,1,.94-.76,4.09,4.09,0,0,1,1.55-.25,5.32,5.32,0,0,1,1.07.1,4.66,4.66,0,0,1,1,.31,5.11,5.11,0,0,1,.9.52l-.86,1a5,5,0,0,0-1.07-.52,3.4,3.4,0,0,0-1-.17,1.89,1.89,0,0,0-1.09.25.83.83,0,0,0-.36.74.51.51,0,0,0,.21.44,1.23,1.23,0,0,0,.51.19c.21,0,.51.06.9.08h.26a5.55,5.55,0,0,1,1.29.2,1.69,1.69,0,0,1,.89.6,2,2,0,0,1,.37,1.31,2.25,2.25,0,0,1-.34,1.29,2,2,0,0,1-1,.77,4.8,4.8,0,0,1-1.69.26A5.08,5.08,0,0,1,351.16,117.26Z" transform="translate(-19.58 -12)"/><path class="cls-3" d="M361.91,110.06h3.26v1.28h-3.26Zm1.16,6.77a2.09,2.09,0,0,1-.41-1.42V108h1.42v7.46a.69.69,0,0,0,.1.41.37.37,0,0,0,.31.14h.68v1.35h-.82A1.55,1.55,0,0,1,363.07,116.83Z" transform="translate(-19.58 -12)"/><path class="cls-3" d="M372.39,110.06h1.42v7.22h-1.42Zm3.5,1.36a1.9,1.9,0,0,0-.66-.11,1.29,1.29,0,0,0-1.42,1.4l-.14-1.39a2.68,2.68,0,0,1,.86-1,2.09,2.09,0,0,1,1.17-.35,2.48,2.48,0,0,1,.89.14,1.85,1.85,0,0,1,.7.42l-.92,1.25A1.3,1.3,0,0,0,375.89,111.42Z" transform="translate(-19.58 -12)"/><path class="cls-3" d="M384.77,117a2.48,2.48,0,0,1-1-1.08,3.82,3.82,0,0,1-.35-1.7v-1.17a3.73,3.73,0,0,1,.35-1.68,2.46,2.46,0,0,1,1-1.07,3.78,3.78,0,0,1,3.22,0,2.46,2.46,0,0,1,1,1.07,3.73,3.73,0,0,1,.35,1.68v1.19A3.77,3.77,0,0,1,389,116a2.51,2.51,0,0,1-1,1.07,3.69,3.69,0,0,1-3.22,0Zm2.76-1.45a1.92,1.92,0,0,0,.41-1.31v-1.19a1.88,1.88,0,0,0-.41-1.3,1.67,1.67,0,0,0-2.3,0,1.88,1.88,0,0,0-.41,1.3v1.19a1.92,1.92,0,0,0,.41,1.31,1.64,1.64,0,0,0,2.3,0Z" transform="translate(-19.58 -12)"/><path class="cls-3" d="M396.65,110.06h1.42v7.22h-1.42Zm4.39,2.85a1.69,1.69,0,0,0-.4-1.19,1.75,1.75,0,0,0-2.19,0,1.41,1.41,0,0,0-.38,1l-.15-1.39a2.65,2.65,0,0,1,.88-1A2.08,2.08,0,0,1,400,110a2.24,2.24,0,0,1,1.82.76,3.32,3.32,0,0,1,.65,2.18v4.38H401Z" transform="translate(-19.58 -12)"/><path class="cls-3" d="M411.05,117a2.37,2.37,0,0,1-1-1.08,3.68,3.68,0,0,1-.35-1.7v-1.17a3.6,3.6,0,0,1,.35-1.68,2.35,2.35,0,0,1,1-1.07,3.76,3.76,0,0,1,3.21,0,2.35,2.35,0,0,1,1,1.07,3.6,3.6,0,0,1,.35,1.68v1.19a3.64,3.64,0,0,1-.35,1.69,2.4,2.4,0,0,1-1,1.07,3.67,3.67,0,0,1-3.21,0Zm2.76-1.45a1.92,1.92,0,0,0,.4-1.31v-1.19a1.87,1.87,0,0,0-.4-1.3,1.45,1.45,0,0,0-1.15-.46,1.47,1.47,0,0,0-1.16.46,1.87,1.87,0,0,0-.4,1.3v1.19a1.92,1.92,0,0,0,.4,1.31,1.48,1.48,0,0,0,1.16.47A1.46,1.46,0,0,0,413.81,115.57Z" transform="translate(-19.58 -12)"/><path class="cls-3" d="M422.93,110.06h1.42v7.22h-1.42Zm4.31,2.85a1.73,1.73,0,0,0-.37-1.19,1.39,1.39,0,0,0-1.07-.41,1.49,1.49,0,0,0-1.07.36,1.37,1.37,0,0,0-.38,1l-.15-1.39a2.55,2.55,0,0,1,.87-1,2.11,2.11,0,0,1,1.2-.35,2.32,2.32,0,0,1,1.29.34,2.18,2.18,0,0,1,.82,1,4,4,0,0,1,.28,1.59v4.38h-1.42Zm4.32,0a1.69,1.69,0,0,0-.4-1.19,1.49,1.49,0,0,0-1.11-.41,1.31,1.31,0,0,0-1,.4,1.66,1.66,0,0,0-.36,1.14l-.28-1.39a2.64,2.64,0,0,1,.9-1.11,2.09,2.09,0,0,1,1.23-.39,2.5,2.5,0,0,1,1.34.34,2.22,2.22,0,0,1,.84,1,4,4,0,0,1,.29,1.59v4.38h-1.42Z" transform="translate(-19.58 -12)"/><path class="cls-3" d="M440.34,108l2-2.47,1,.85-2.12,2.34Zm.07,2.11h1.42v7.22h-1.42Z" transform="translate(-19.58 -12)"/><path class="cls-3" d="M449.57,116.83a2,2,0,0,1-.66-1.68,2,2,0,0,1,.61-1.6,2.67,2.67,0,0,1,1.83-.54h2l.1,1.14h-2.15a1.19,1.19,0,0,0-.83.25,1,1,0,0,0-.27.75,1,1,0,0,0,.36.82,1.9,1.9,0,0,0,1.11.26,3.16,3.16,0,0,0,1.22-.17.59.59,0,0,0,.4-.54l.14,1a1.51,1.51,0,0,1-.46.48,1.78,1.78,0,0,1-.64.28,2.9,2.9,0,0,1-.81.1A3.06,3.06,0,0,1,449.57,116.83Zm3.77-4.12a1.54,1.54,0,0,0-.38-1.11,1.43,1.43,0,0,0-1.08-.39,2.63,2.63,0,0,0-.84.13,2.57,2.57,0,0,0-.74.37l-1-.71a2.63,2.63,0,0,1,1.08-.77,4,4,0,0,1,1.49-.27,3.47,3.47,0,0,1,1.54.31,2.16,2.16,0,0,1,1,.92,2.88,2.88,0,0,1,.34,1.45v4.64h-1.35Z" transform="translate(-19.58 -12)"/><path class="cls-3" d="M472.47,117a2.52,2.52,0,0,1-1.09-1.1,3.94,3.94,0,0,1-.37-1.76v-.81a4.2,4.2,0,0,1,.36-1.83,2.61,2.61,0,0,1,1-1.16,3.24,3.24,0,0,1,1.64-.39,2.63,2.63,0,0,1,1.55.45,2.9,2.9,0,0,1,1,1.31,5.68,5.68,0,0,1,.33,2v.47H472V113.1h3.52a2.4,2.4,0,0,0-.45-1.37,1.3,1.3,0,0,0-1.06-.49,1.52,1.52,0,0,0-1.25.53,2.28,2.28,0,0,0-.44,1.49v.92a1.91,1.91,0,0,0,.47,1.38,1.83,1.83,0,0,0,1.35.48,2.13,2.13,0,0,0,.85-.18,2.23,2.23,0,0,0,.76-.48l.93.93a3.88,3.88,0,0,1-1.2.8,3.54,3.54,0,0,1-1.34.28A3.6,3.6,0,0,1,472.47,117Z" transform="translate(-19.58 -12)"/><path class="cls-3" d="M484.14,110.06h1.42v7.22h-1.42Zm4.38,2.85a1.65,1.65,0,0,0-.4-1.19,1.47,1.47,0,0,0-1.11-.41,1.49,1.49,0,0,0-1.07.36,1.37,1.37,0,0,0-.38,1l-.15-1.39a2.55,2.55,0,0,1,.87-1,2.11,2.11,0,0,1,1.2-.35,2.25,2.25,0,0,1,1.82.76,3.31,3.31,0,0,1,.64,2.18v4.38h-1.42Z" transform="translate(-19.58 -12)"/><path class="cls-3" d="M507.72,117a2.5,2.5,0,0,1-1.08-1.1,3.81,3.81,0,0,1-.38-1.76v-.81a4.2,4.2,0,0,1,.36-1.83,2.61,2.61,0,0,1,1-1.16,3.3,3.3,0,0,1,1.65-.39,2.62,2.62,0,0,1,1.54.45,2.83,2.83,0,0,1,1,1.31,5.67,5.67,0,0,1,.34,2v.47h-4.88V113.1h3.53a2.47,2.47,0,0,0-.46-1.37,1.26,1.26,0,0,0-1.05-.49,1.51,1.51,0,0,0-1.25.53,2.23,2.23,0,0,0-.45,1.49v.92a1.87,1.87,0,0,0,.48,1.38,1.79,1.79,0,0,0,1.34.48,2.21,2.21,0,0,0,.86-.18,2.29,2.29,0,0,0,.75-.48l.94.93a4,4,0,0,1-1.21.8,3.54,3.54,0,0,1-1.34.28A3.6,3.6,0,0,1,507.72,117Z" transform="translate(-19.58 -12)"/><path class="cls-3" d="M520.74,117.26a4.42,4.42,0,0,1-1-.37,4,4,0,0,1-.9-.63l.84-1a4.8,4.8,0,0,0,1.16.67,3.17,3.17,0,0,0,1.14.23,2.4,2.4,0,0,0,1.27-.27.85.85,0,0,0,.42-.78.63.63,0,0,0-.23-.52,1.32,1.32,0,0,0-.57-.23c-.23,0-.55-.08-1-.11h-.35a5.69,5.69,0,0,1-1.19-.21,1.53,1.53,0,0,1-.81-.56,1.81,1.81,0,0,1-.33-1.17,2.41,2.41,0,0,1,.32-1.28,1.91,1.91,0,0,1,.93-.76A4.09,4.09,0,0,1,522,110a5.35,5.35,0,0,1,1.08.1,4.57,4.57,0,0,1,1,.31,4.48,4.48,0,0,1,.9.52l-.85,1a5.24,5.24,0,0,0-1.07-.52,3.42,3.42,0,0,0-1-.17,1.87,1.87,0,0,0-1.08.25.84.84,0,0,0-.37.74.51.51,0,0,0,.21.44,1.28,1.28,0,0,0,.52.19c.21,0,.5.06.89.08h.26a5.47,5.47,0,0,1,1.29.2,1.72,1.72,0,0,1,.9.6,2.06,2.06,0,0,1,.36,1.31,2.33,2.33,0,0,1-.33,1.29,2,2,0,0,1-1,.77,4.8,4.8,0,0,1-1.69.26A5.19,5.19,0,0,1,520.74,117.26Z" transform="translate(-19.58 -12)"/><path class="cls-3" d="M532.05,110.06h1.42v10.16h-1.42Zm2.06,7a1.91,1.91,0,0,1-.73-.92l.09-1.51a1.74,1.74,0,0,0,.17.79,1.11,1.11,0,0,0,.48.5,1.57,1.57,0,0,0,.77.18,1.4,1.4,0,0,0,1.09-.43,1.74,1.74,0,0,0,.39-1.21v-1.56a1.82,1.82,0,0,0-.39-1.24,1.37,1.37,0,0,0-1.09-.43,1.68,1.68,0,0,0-.77.16,1.14,1.14,0,0,0-.48.49,1.73,1.73,0,0,0-.17.78l-.14-1.39a2.56,2.56,0,0,1,.85-1,2.14,2.14,0,0,1,1.18-.34,2.39,2.39,0,0,1,1.31.34,2.14,2.14,0,0,1,.83,1,4,4,0,0,1,.29,1.59v1.57a3.89,3.89,0,0,1-.29,1.57,2.17,2.17,0,0,1-.86,1,2.56,2.56,0,0,1-1.35.35A2.19,2.19,0,0,1,534.11,117.07Z" transform="translate(-19.58 -12)"/><path class="cls-3" d="M545.39,116.83a2,2,0,0,1-.66-1.68,2,2,0,0,1,.61-1.6,2.67,2.67,0,0,1,1.83-.54h2.05l.1,1.14h-2.15a1.19,1.19,0,0,0-.83.25,1,1,0,0,0-.27.75,1,1,0,0,0,.36.82,1.9,1.9,0,0,0,1.11.26,3.16,3.16,0,0,0,1.22-.17.57.57,0,0,0,.4-.54l.14,1a1.41,1.41,0,0,1-.46.48,1.81,1.81,0,0,1-.63.28,3,3,0,0,1-.82.1A3.06,3.06,0,0,1,545.39,116.83Zm3.77-4.12a1.54,1.54,0,0,0-.38-1.11,1.43,1.43,0,0,0-1.08-.39,2.68,2.68,0,0,0-.84.13,2.57,2.57,0,0,0-.74.37l-1-.71a2.63,2.63,0,0,1,1.08-.77,4,4,0,0,1,1.49-.27,3.47,3.47,0,0,1,1.54.31,2.16,2.16,0,0,1,1,.92,2.88,2.88,0,0,1,.34,1.45v4.64h-1.35Z" transform="translate(-19.58 -12)"/><path class="cls-3" d="M557.94,110.06h1.42v7.22h-1.42Zm3.43-1.54a2.46,2.46,0,0,1-.45-.24l-.06,0-.07-.06-.08-.05-.43-.29a.64.64,0,0,0-.3-.09.51.51,0,0,0-.37.12.49.49,0,0,0-.12.36v.35h-1.1v-.31a2,2,0,0,1,.36-1.29,1.28,1.28,0,0,1,1.06-.43,1.25,1.25,0,0,1,.51.1,2.85,2.85,0,0,1,.49.29l.06,0,.08.06.39.27a.61.61,0,0,0,.3.09.45.45,0,0,0,.36-.13.58.58,0,0,0,.12-.4v-.28h1.1v.23a2.17,2.17,0,0,1-.35,1.34,1.26,1.26,0,0,1-1.06.45A1.12,1.12,0,0,1,561.37,108.52Zm1,4.39a1.69,1.69,0,0,0-.39-1.19,1.51,1.51,0,0,0-1.12-.41,1.49,1.49,0,0,0-1.07.36,1.41,1.41,0,0,0-.38,1l-.15-1.39a2.65,2.65,0,0,1,.88-1,2.08,2.08,0,0,1,1.19-.35,2.25,2.25,0,0,1,1.82.76,3.31,3.31,0,0,1,.64,2.18v4.38h-1.42Z" transform="translate(-19.58 -12)"/><path class="cls-3" d="M572.34,117a2.37,2.37,0,0,1-1-1.08,3.68,3.68,0,0,1-.35-1.7v-1.17a3.6,3.6,0,0,1,.35-1.68,2.35,2.35,0,0,1,1-1.07,3.76,3.76,0,0,1,3.21,0,2.35,2.35,0,0,1,1,1.07,3.6,3.6,0,0,1,.35,1.68v1.19a3.64,3.64,0,0,1-.35,1.69,2.4,2.4,0,0,1-1,1.07,3.67,3.67,0,0,1-3.21,0Zm2.76-1.45a1.92,1.92,0,0,0,.4-1.31v-1.19a1.87,1.87,0,0,0-.4-1.3,1.45,1.45,0,0,0-1.15-.46,1.47,1.47,0,0,0-1.16.46,1.87,1.87,0,0,0-.4,1.3v1.19a1.92,1.92,0,0,0,.4,1.31A1.48,1.48,0,0,0,574,116,1.46,1.46,0,0,0,575.1,115.57Z" transform="translate(-19.58 -12)"/><path class="cls-3" d="M585.64,115.42a.63.63,0,0,0,.11.41.42.42,0,0,0,.32.14h.67v1.35h-.83a1.58,1.58,0,0,1-1.25-.5,2.05,2.05,0,0,1-.44-1.41v-8.24h1.42Z" transform="translate(-19.58 -12)"/><polygon class="cls-1" points="68.31 66.78 68.31 65.4 64.42 63.99 59.01 63.81 59.01 65.4 64.38 65.65 68.31 66.78"/><polygon class="cls-1" points="0 66.91 0 65.53 3.89 64.12 9.3 63.94 9.3 65.53 3.93 65.78 0 66.91"/><path id="Dome" class="cls-1" d="M76.64,67.67a20.31,20.31,0,0,0-.43-9.89,24.57,24.57,0,0,0-9.24-14,23,23,0,0,0-12.82-4.38,23.42,23.42,0,0,0-15.57,5.67A22.38,22.38,0,0,0,31,57.78c-.33,1.69-1.39,8.16,1.78,13.62,7.65,13.15,34.63,12,41,2.92A21.06,21.06,0,0,0,76.64,67.67Z" transform="translate(-19.58 -12)"/><path class="cls-4" d="M30.33,67.06a6.35,6.35,0,0,1,1.08-3.46,6.19,6.19,0,0,1,1.51-1.52,21.8,21.8,0,0,1,7.86-3.24,62.38,62.38,0,0,1,13.41-1.3,49.46,49.46,0,0,1,11.75,1.3c7.11,1.72,9.14,4,10,5.26a7.88,7.88,0,0,1,1.29,3.46,8.68,8.68,0,0,1-.64,4C73.88,77.56,30.46,72,30.33,67.06Z" transform="translate(-19.58 -12)"/><polygon class="cls-1" points="46.03 49.45 21.92 49.45 8.13 55.34 8.13 57.62 21.92 51.94 46.03 51.94 59.93 57.89 59.93 55.72 46.03 49.45"/><rect class="cls-1" x="22.46" y="53.24" width="23.57" height="52.44"/><polygon class="cls-4" points="64.04 66 64.04 105.68 68.3 105.68 67.93 67.46 64.04 66"/><path class="cls-4" d="M87.89,78.78,84,77.4H78.84l0-6.81.7-.7-13.9-6H41.5L27.72,69.62l1.13,1,0,6.94H23.45l-3.87,1.38.38.67-.37,38.1h4.26V78.12l5,0-.18,39.58H42V65.24H65.61v52.44H79Q78.93,97.82,78.84,78l4.78,0,3.89,1.46Z" transform="translate(-19.58 -12)"/><g id="Doors"><rect class="cls-4" x="28.75" y="63.39" width="3.24" height="9.66"/><rect class="cls-4" x="32.83" y="63.39" width="3.24" height="9.66"/><rect class="cls-4" x="36.91" y="63.39" width="3.24" height="9.66"/><rect class="cls-4" x="30.28" y="90.01" width="8.92" height="15.68"/><path class="cls-4" d="M54.32,95.46a4.55,4.55,0,0,0-4.46,4.63h8.92A4.55,4.55,0,0,0,54.32,95.46Z" transform="translate(-19.58 -12)"/><g id="Cactus"><path class="cls-5" d="M39.74,107.83v-3.67a1.06,1.06,0,0,0-.29-.46.91.91,0,0,0-1-.19.89.89,0,0,0-.35.61,2,2,0,0,0,0,.33v3.31a1.15,1.15,0,0,1,0,.41,1.29,1.29,0,0,1-.22.5,1.38,1.38,0,0,1-.8.39,2.53,2.53,0,0,1-.67,0v-6.54a1.52,1.52,0,0,0,0-.48,1.54,1.54,0,0,0-1-1.21,1.43,1.43,0,0,0-1.6.53,1.41,1.41,0,0,0-.21.78v9a1.92,1.92,0,0,1-.47-.06,1.37,1.37,0,0,1-.84-.41,1.33,1.33,0,0,1-.23-.53,1.38,1.38,0,0,1,0-.44v-3.54a1.06,1.06,0,0,0,0-.35,1,1,0,0,0-.36-.65.94.94,0,0,0-1.05.2,1.17,1.17,0,0,0-.31.49V110a3.34,3.34,0,0,0,.5,1.62,3.21,3.21,0,0,0,2.29,1.25,3,3,0,0,0,.5,0v4.73h2.81v-6.91a3.5,3.5,0,0,0,.7,0,2.71,2.71,0,0,0,2.66-2.69Z" transform="translate(-19.58 -12)"/><path class="cls-5" d="M82.64,108.91v-4.13a1.21,1.21,0,0,0-.32-.51,1,1,0,0,0-1.11-.21,1,1,0,0,0-.38.69,1.12,1.12,0,0,0,0,.36v3.73a1.5,1.5,0,0,1,0,.46,1.23,1.23,0,0,1-.25.55,1.43,1.43,0,0,1-.88.44,2.6,2.6,0,0,1-.49.07V100.9a1.47,1.47,0,0,0-.22-.82,1.49,1.49,0,0,0-1.68-.56,1.61,1.61,0,0,0-1,1.27,1.43,1.43,0,0,0,0,.51v6.88a2.78,2.78,0,0,1-.71-.05,1.1,1.1,0,0,1-1.07-.93,1.32,1.32,0,0,1,0-.43v-3.5a1,1,0,0,0,0-.34.92.92,0,0,0-.37-.64.94.94,0,0,0-1,.2,1.15,1.15,0,0,0-.31.48v4.1a3.21,3.21,0,0,0,.5,1.59,3.26,3.26,0,0,0,2.3,1.24,3.87,3.87,0,0,0,.74,0v7.75h3v-5.46a3.4,3.4,0,0,0,.53,0,3.32,3.32,0,0,0,2.4-1.32,3.51,3.51,0,0,0,.53-1.7Z" transform="translate(-19.58 -12)"/></g></g><g id="Lines_dome" data-name="Lines dome"><path class="cls-4" d="M52.75,39.69c-.27,2.5-.47,5.21-.54,8.11-.09,3.36,0,6.49.21,9.35l0,.43c0-.11,0-.23,0-.34-.13-2.9-.14-5.75-.05-8.56Z" transform="translate(-19.58 -12)"/><path class="cls-4" d="M49.77,40a10.18,10.18,0,0,0-1.56,2.65,9.38,9.38,0,0,0-.54,1.88,52.76,52.76,0,0,0-.83,7.17v5.34l0-.59c0-1.48.06-3,.16-4.63.13-1.93.25-3.11.53-5.46a15.74,15.74,0,0,1,.66-3.22c.18-.54.36-1,.49-1.28Z" transform="translate(-19.58 -12)"/><path class="cls-4" d="M46.24,40.94A12.57,12.57,0,0,0,44.37,43a16.12,16.12,0,0,0-1.68,3.25c-1.56,4.1-1.18,10.33-1.13,11l.08.68c0-.5,0-1.23,0-2.11a41.5,41.5,0,0,1,.14-4.23,22,22,0,0,1,.61-3.7,15.06,15.06,0,0,1,1.11-3.1,12,12,0,0,1,1.1-1.87,11.72,11.72,0,0,1,1-1.28Z" transform="translate(-19.58 -12)"/><path class="cls-4" d="M42.8,42.47a10.06,10.06,0,0,0-.92.77,12.22,12.22,0,0,0-2.9,4.7,26.1,26.1,0,0,0-1.55,7,27.38,27.38,0,0,0-.07,4.1s0-.93,0-2a27.46,27.46,0,0,1,1.1-7.44,16.7,16.7,0,0,1,1.93-4.33,15.26,15.26,0,0,1,1.51-2Z" transform="translate(-19.58 -12)"/><path class="cls-4" d="M37.43,46.63a17.66,17.66,0,0,0-1.79,3.19,20.53,20.53,0,0,0-1.17,3.91,28.15,28.15,0,0,0-.5,7.06s0-.3.06-1.74.11-2.35.17-3a22,22,0,0,1,.92-4.4,22.8,22.8,0,0,1,1.23-3.08A21.64,21.64,0,0,1,37.43,46.63Z" transform="translate(-19.58 -12)"/><path class="cls-4" d="M33.46,51.27a24.74,24.74,0,0,0-1,3.2,27.6,27.6,0,0,0-.67,7.85s-.05-1.11,0-2.55a29.9,29.9,0,0,1,.45-4,25.49,25.49,0,0,1,.74-3Z" transform="translate(-19.58 -12)"/><path class="cls-4" d="M57.26,39.71c.27,2.5.46,5.21.54,8.11.08,3.36,0,6.49-.22,9.35l0,.43c0-.11,0-.23,0-.35q.18-4.34,0-8.55Z" transform="translate(-19.58 -12)"/><path class="cls-4" d="M60.68,40.74a10.09,10.09,0,0,1,1.57,2.66,10.88,10.88,0,0,1,.54,1.87,54.43,54.43,0,0,1,.83,7.17v5.34l0-.59c0-1.47-.07-3-.17-4.63-.12-1.93-.25-3.11-.52-5.46a15.35,15.35,0,0,0-.67-3.22c-.18-.54-.36-1-.49-1.28Z" transform="translate(-19.58 -12)"/><path class="cls-4" d="M63.76,42.08a13.16,13.16,0,0,1,1.88,2.11,16.5,16.5,0,0,1,1.67,3.24c1.56,4.11,1.18,10.34,1.14,11l-.08.67c0-.5,0-1.23,0-2.11a41.21,41.21,0,0,0-.14-4.22,22.83,22.83,0,0,0-.6-3.71,16.63,16.63,0,0,0-1.11-3.1,14.79,14.79,0,0,0-1.1-1.87,11.43,11.43,0,0,0-1-1.27Z" transform="translate(-19.58 -12)"/><path class="cls-4" d="M67.2,44.06a9,9,0,0,1,.92.78,12.22,12.22,0,0,1,2.9,4.7,25.06,25.06,0,0,1,1.55,7,29.86,29.86,0,0,1,.08,4.09s0-.93-.05-2a28.27,28.27,0,0,0-1.1-7.43,16.08,16.08,0,0,0-3.45-6.34Z" transform="translate(-19.58 -12)"/><path class="cls-4" d="M74.19,52.6a24.42,24.42,0,0,1,1,3.21,26.89,26.89,0,0,1,.66,7.84,21.05,21.05,0,0,0,0-2.55,29.41,29.41,0,0,0-.45-4,27.8,27.8,0,0,0-.74-3Z" transform="translate(-19.58 -12)"/></g><path class="cls-4" d="M72,12c-7.48,0-13.54,5.74-13.54,12.81a12.22,12.22,0,0,0,1.84,6.45,8.29,8.29,0,0,1-1.84,4.86,5.1,5.1,0,0,1-1.53,1.16,7.79,7.79,0,0,0,5.77-.38,8.84,8.84,0,0,0,2-1.31,14,14,0,0,0,7.32,2c7.48,0,13.54-5.74,13.54-12.82S79.44,12,72,12Z" transform="translate(-19.58 -12)"/><text class="cls-6" transform="translate(46.37 19.05)">ñ</text><g id="Stars"><path class="cls-4" d="M40.47,30.38l1-.09-.94-.08-.1-1-.08,1-.94.08,1,.09.07.94Z" transform="translate(-19.58 -12)"/><path class="cls-4" d="M29,38.5l3.42-.33L29,37.88l1-1.23-1.22,1-.33-3.41-.29,3.45-1.22-1,1,1.25-3.39.28,3.36.32-1,1.25,1.27-1.06.27,3.39.33-3.34,1.24,1Z" transform="translate(-19.58 -12)"/><path class="cls-4" d="M23.49,60.88,25,60.74l-1.46-.12-.14-1.47-.12,1.47-1.45.12,1.45.14.12,1.44Z" transform="translate(-19.58 -12)"/><path class="cls-4" d="M81.78,49.41l2.65-.26-2.66-.22.8-1-.94.77-.26-2.64-.22,2.67-1-.8.78,1-2.62.22,2.6.25-.79,1,1-.82.21,2.63.25-2.59,1,.79Z" transform="translate(-19.58 -12)"/><path class="cls-4" d="M83.44,72l1-.09-1-.08-.1-1-.08,1-1,.08,1,.09.07,1Z" transform="translate(-19.58 -12)"/><path class="cls-4" d="M32.76,19.58l1.84-.18-1.84-.15-.18-1.86-.15,1.86-1.84.15,1.84.18.15,1.82Z" transform="translate(-19.58 -12)"/><path class="cls-4" d="M53,17.69l.5-.05-.5,0,0-.51,0,.51-.51,0,.51.05,0,.5Z" transform="translate(-19.58 -12)"/></g></svg>