<svg id="Layer_1" data-name="Layer 1" xmlns="http://www.w3.org/2000/svg" viewBox="0 0 961.54 1054.06"><defs><style>.cls-1{fill:#585858;}.cls-2{font-size:901.53px;font-family:Futura-Medium, Futura;font-weight:500;}.cls-2,.cls-3{fill:#fff;}</style></defs><title>AstroCharlas</title><polygon class="cls-1" points="721.15 63.54 240.38 63.54 0 479.9 240.38 896.26 721.15 896.26 961.54 479.9 721.15 63.54"/><text class="cls-2" transform="translate(233.53 793.9)">ñ</text><circle class="cls-1" cx="499.93" cy="241.7" r="55" transform="translate(-73.67 197.56) rotate(-22.5)"/><path class="cls-3" d="M499.93,206.7a35,35,0,1,1-35,35,35,35,0,0,1,35-35m0-40a75,75,0,1,0,75,75,75,75,0,0,0-75-75Z" transform="translate(-19.23 -12.16)"/><polygon class="cls-1" points="186.86 507.48 217.77 513.84 186.86 520.21 181.77 558.84 176.68 520.21 145.77 513.84 176.68 507.48 181.77 468.84 186.86 507.48"/><polygon class="cls-3" points="181.77 468.84 176.68 507.48 145.77 513.84 176.68 520.21 181.77 558.84 186.86 520.21 217.77 513.84 186.86 507.48 181.77 468.84 181.77 468.84"/><polygon class="cls-1" points="734.25 313.28 777.06 322.09 734.25 330.9 727.2 384.41 720.15 330.9 677.34 322.09 720.15 313.28 727.2 259.77 734.25 313.28"/><polygon class="cls-3" points="727.2 259.77 720.15 313.28 677.34 322.09 720.15 330.9 727.2 384.41 734.25 330.9 777.06 322.09 734.25 313.28 727.2 259.77 727.2 259.77"/><polygon class="cls-1" points="754.93 677.85 775.52 682.09 754.93 686.33 751.54 712.08 748.14 686.33 727.55 682.09 748.14 677.85 751.54 652.11 754.93 677.85"/><polygon class="cls-3" points="751.54 652.11 748.14 677.85 727.55 682.09 748.14 686.33 751.54 712.08 754.93 686.33 775.52 682.09 754.93 677.85 751.54 652.11 751.54 652.11"/></svg>