<svg id="Layer_1" data-name="Layer 1" xmlns="http://www.w3.org/2000/svg" viewBox="0 0 961.54 832.72"><defs><style>.cls-1{fill:#585858;}.cls-2{fill:#fff;}</style></defs><title>AstroCharlas</title><polygon class="cls-1" points="721.15 0 240.38 0 0 416.36 240.38 832.72 721.15 832.72 961.54 416.36 721.15 0"/><path class="cls-2" d="M370.73,304.23l-57.67-48.86,12.77-18.05A262.65,262.65,0,0,1,349.6,207.6a129.13,129.13,0,0,1,23.33-19.8,83.58,83.58,0,0,1,24.65-11,110.56,110.56,0,0,1,27.73-3.3q34.33,0,79.68,22.89,45.78,23.34,59,23.33,24.64,0,54.58-47.54l55.91,46.66Q632.2,303.36,560,303.35q-24.64,0-80.55-24.65-40.06-20.25-59.87-20.25Q395.38,258.45,370.73,304.23ZM315.26,377.3h99.49v39.62q51.93-51.51,117.09-51.5,74.83,0,116.66,47.1,36.07,40.07,36.09,130.74V806.05H585.11V566.59q0-63.39-17.61-87.6Q550.32,454.35,505,454.34q-49.31,0-70,32.57-20.25,32.14-20.25,112.25V806.05H315.26Z" transform="translate(-19.23 -75.7)"/><circle class="cls-1" cx="499.93" cy="241.7" r="55" transform="translate(-73.67 134.02) rotate(-22.5)"/><path class="cls-2" d="M499.93,206.7a35,35,0,1,1-35,35,35,35,0,0,1,35-35m0-40a75,75,0,1,0,75,75,75,75,0,0,0-75-75Z" transform="translate(-19.23 -75.7)"/><polygon class="cls-1" points="186.86 443.94 217.77 450.31 186.86 456.67 181.77 495.31 176.68 456.67 145.77 450.31 176.68 443.94 181.77 405.31 186.86 443.94"/><polygon class="cls-2" points="181.77 405.31 176.68 443.94 145.77 450.31 176.68 456.67 181.77 495.31 186.86 456.67 217.77 450.31 186.86 443.94 181.77 405.31 181.77 405.31"/><polygon class="cls-1" points="734.25 249.74 777.06 258.55 734.25 267.37 727.2 320.88 720.15 267.37 677.34 258.55 720.15 249.74 727.2 196.23 734.25 249.74"/><polygon class="cls-2" points="727.2 196.23 720.15 249.74 677.34 258.55 720.15 267.37 727.2 320.88 734.25 267.37 777.06 258.55 734.25 249.74 727.2 196.23 727.2 196.23"/><polygon class="cls-1" points="754.93 614.31 775.52 618.55 754.93 622.79 751.54 648.54 748.14 622.79 727.55 618.55 748.14 614.31 751.54 588.57 754.93 614.31"/><polygon class="cls-2" points="751.54 588.57 748.14 614.31 727.55 618.55 748.14 622.79 751.54 648.54 754.93 622.79 775.52 618.55 754.93 614.31 751.54 588.57 751.54 588.57"/></svg>