<svg id="Layer_1" data-name="Layer 1" xmlns="http://www.w3.org/2000/svg" viewBox="0 0 188.17 194.76"><defs><style>.cls-1{fill:#15244a;}.cls-2{font-size:124.13px;font-family:BelyDisplay-Regular, Bely Display;}.cls-2,.cls-3{fill:#f6eb0f;}</style></defs><path class="cls-1" d="M118.07,18.69C68.88,18.69,29,56.43,29,103a80.43,80.43,0,0,0,12.08,42.4c-.66,8.49-3.15,22.11-12.08,32A33.51,33.51,0,0,1,19,185a51.21,51.21,0,0,0,37.9-2.55,58.85,58.85,0,0,0,13-8.57,92.3,92.3,0,0,0,48.17,13.38c49.19,0,89.07-37.73,89.07-84.28S167.26,18.69,118.07,18.69Z" transform="translate(-18.97 -18.69)"/><text class="cls-2" transform="translate(59.61 125.28)">ñ</text><g id="Stars"><path class="cls-3" d="M179.69,119.62l6.25-.6-6.23-.53-.61-6.3-.53,6.32-6.22.51,6.24.6.51,6.17Z" transform="translate(-18.97 -18.69)"/><path class="cls-3" d="M63.94,76.45l13.72-1.34L63.86,74,68,69l-4.88,4q-.68-6.84-1.33-13.68L60.65,73.15,55.75,69l4,5L46.19,75.11l13.48,1.31-4.08,5,5.1-4.26,1.12,13.61,1.3-13.41,5,4.1Z" transform="translate(-18.97 -18.69)"/><path class="cls-3" d="M127,165.19l6.49-.63L127,164l-.63-6.55-.56,6.57-6.46.53,6.49.63.53,6.4Z" transform="translate(-18.97 -18.69)"/><path class="cls-3" d="M60.07,126.68l9-.87-9-.75L59.21,116l-.76,9.09-9,.73,9,.87.73,8.86Z" transform="translate(-18.97 -18.69)"/><path class="cls-3" d="M165.37,71.17l3.34-.33-3.33-.28-.33-3.37-.28,3.38-3.33.27,3.34.33.27,3.29Z" transform="translate(-18.97 -18.69)"/></g></svg>